<svg viewBox="0 0 1920 1080" xmlns="http://www.w3.org/2000/svg">
  <defs>
    <!-- Gradients -->
    <linearGradient id="bg-gradient" x1="0%" y1="0%" x2="100%" y2="100%">
      <stop offset="0%" style="stop-color:#0f172a;stop-opacity:1" />
      <stop offset="50%" style="stop-color:#1e3a5f;stop-opacity:1" />
      <stop offset="100%" style="stop-color:#0c4a6e;stop-opacity:1" />
    </linearGradient>
    
    <radialGradient id="glow-1" cx="50%" cy="50%">
      <stop offset="0%" style="stop-color:#06b6d4;stop-opacity:0.4" />
      <stop offset="100%" style="stop-color:#06b6d4;stop-opacity:0" />
    </radialGradient>
    
    <radialGradient id="glow-2" cx="50%" cy="50%">
      <stop offset="0%" style="stop-color:#0ea5e9;stop-opacity:0.3" />
      <stop offset="100%" style="stop-color:#0ea5e9;stop-opacity:0" />
    </radialGradient>
    
    <radialGradient id="glow-3" cx="50%" cy="50%">
      <stop offset="0%" style="stop-color:#22d3ee;stop-opacity:0.35" />
      <stop offset="100%" style="stop-color:#22d3ee;stop-opacity:0" />
    </radialGradient>

    <!-- Filters -->
    <filter id="blur-heavy">
      <feGaussianBlur in="SourceGraphic" stdDeviation="60" />
    </filter>
    
    <filter id="blur-light">
      <feGaussianBlur in="SourceGraphic" stdDeviation="30" />
    </filter>
  </defs>

  <!-- Background -->
  <rect width="1920" height="1080" fill="url(#bg-gradient)"/>

  <!-- Glowing Orbs -->
  <circle cx="300" cy="200" r="250" fill="url(#glow-1)" filter="url(#blur-heavy)">
    <animate attributeName="cy" values="200;250;200" dur="8s" repeatCount="indefinite"/>
  </circle>
  
  <circle cx="1600" cy="300" r="300" fill="url(#glow-2)" filter="url(#blur-heavy)">
    <animate attributeName="cx" values="1600;1550;1600" dur="10s" repeatCount="indefinite"/>
  </circle>
  
  <circle cx="960" cy="800" r="200" fill="url(#glow-3)" filter="url(#blur-heavy)">
    <animate attributeName="r" values="200;250;200" dur="7s" repeatCount="indefinite"/>
  </circle>

  <!-- Abstract Sports Elements -->
  
  <!-- Basketball Court Lines (Left) -->
  <g opacity="0.15" stroke="#06b6d4" stroke-width="3" fill="none">
    <rect x="100" y="300" width="400" height="600" rx="20"/>
    <circle cx="300" cy="600" r="100"/>
    <line x1="300" y1="300" x2="300" y2="900"/>
    <path d="M 100 600 Q 200 600 300 600" stroke-dasharray="10,5"/>
  </g>

  <!-- Soccer Goal (Right) -->
  <g opacity="0.12" stroke="#0ea5e9" stroke-width="4" fill="none">
    <rect x="1400" y="400" width="350" height="250" rx="10"/>
    <line x1="1400" y1="525" x2="1750" y2="525"/>
    <line x1="1575" y1="400" x2="1575" y2="650"/>
    <circle cx="1575" cy="525" r="60" opacity="0.3"/>
  </g>

  <!-- Badminton Net (Center Top) -->
  <g opacity="0.1" stroke="#22d3ee" stroke-width="2">
    <line x1="700" y1="150" x2="1220" y2="150"/>
    <line x1="700" y1="180" x2="1220" y2="180"/>
    <line x1="700" y1="210" x2="1220" y2="210"/>
    <line x1="760" y1="150" x2="760" y2="210"/>
    <line x1="860" y1="150" x2="860" y2="210"/>
    <line x1="960" y1="150" x2="960" y2="210"/>
    <line x1="1060" y1="150" x2="1060" y2="210"/>
    <line x1="1160" y1="150" x2="1160" y2="210"/>
  </g>

  <!-- Tennis Ball Pattern (Bottom Right) -->
  <g opacity="0.08">
    <circle cx="1500" cy="850" r="60" fill="none" stroke="#06b6d4" stroke-width="3"/>
    <path d="M 1460 850 Q 1500 820 1540 850" fill="none" stroke="#06b6d4" stroke-width="3"/>
    <path d="M 1460 850 Q 1500 880 1540 850" fill="none" stroke="#06b6d4" stroke-width="3"/>
  </g>

  <!-- Volleyball Net Pattern (Bottom Left) -->
  <g opacity="0.1" stroke="#0ea5e9" stroke-width="2">
    <line x1="200" y1="750" x2="500" y2="750"/>
    <circle cx="250" cy="750" r="40" fill="none"/>
    <circle cx="350" cy="750" r="40" fill="none"/>
    <circle cx="450" cy="750" r="40" fill="none"/>
  </g>

  <!-- Abstract Athlete Silhouettes -->
  
  <!-- Basketball Player (Left) -->
  <g opacity="0.08" fill="#06b6d4">
    <ellipse cx="250" cy="480" rx="30" ry="35" transform="rotate(-15 250 480)"/>
    <rect x="235" y="515" width="30" height="80" rx="15" transform="rotate(-10 250 555)"/>
    <rect x="225" y="595" width="15" height="60" rx="7" transform="rotate(-5 232 625)"/>
    <rect x="260" y="595" width="15" height="60" rx="7" transform="rotate(5 267 625)"/>
    <circle cx="280" cy="420" r="25" opacity="0.6"/>
  </g>

  <!-- Soccer Player (Right) -->
  <g opacity="0.08" fill="#0ea5e9">
    <ellipse cx="1600" cy="550" rx="30" ry="35"/>
    <rect x="1585" y="585" width="30" height="70" rx="15"/>
    <rect x="1575" y="655" width="15" height="50" rx="7" transform="rotate(-10 1582 680)"/>
    <rect x="1610" y="655" width="15" height="50" rx="7" transform="rotate(10 1617 680)"/>
    <circle cx="1640" cy="620" r="20" opacity="0.5"/>
  </g>

  <!-- Geometric Pattern Overlay -->
  <g opacity="0.03" stroke="#22d3ee" stroke-width="1" fill="none">
    <circle cx="800" cy="400" r="150"/>
    <circle cx="800" cy="400" r="200"/>
    <circle cx="800" cy="400" r="250"/>
    
    <circle cx="1100" cy="650" r="120"/>
    <circle cx="1100" cy="650" r="170"/>
    <circle cx="1100" cy="650" r="220"/>
  </g>

  <!-- Decorative Lines -->
  <g opacity="0.06" stroke="#06b6d4" stroke-width="2" stroke-dasharray="15,10">
    <path d="M 0 300 Q 480 320 960 300 T 1920 300"/>
    <path d="M 0 700 Q 480 680 960 700 T 1920 700"/>
  </g>

  <!-- Grid Pattern Overlay -->
  <pattern id="grid" width="80" height="80" patternUnits="userSpaceOnUse">
    <rect width="80" height="80" fill="none" stroke="#06b6d4" stroke-width="0.5" opacity="0.05"/>
  </pattern>
  <rect width="1920" height="1080" fill="url(#grid)"/>

  <!-- Vignette Effect -->
  <radialGradient id="vignette" cx="50%" cy="50%">
    <stop offset="50%" style="stop-color:#000000;stop-opacity:0" />
    <stop offset="100%" style="stop-color:#000000;stop-opacity:0.6" />
  </radialGradient>
  <rect width="1920" height="1080" fill="url(#vignette)"/>
</svg>